<?xml version="1.0" encoding="UTF-8"?>
<svg id="Layer_1" data-name="Layer 1" xmlns="http://www.w3.org/2000/svg" viewBox="0 0 426.76 484.58">
  <defs>
    <style>
      .cls-1 {
        fill: #373737;
      }

      .cls-2 {
        fill: #020202;
      }

      .cls-3 {
        fill: #fff;
      }

      .cls-4 {
        fill: #f3f3f3;
      }
    </style>
  </defs>
  <g id="DDH8lP">
    <g>
      <path class="cls-3" d="M199.01,8.49c2.39,2.12,9.18,10.94,11.76,10.39,2.13-.46,10.65-9.77,13.18-11.79,8.61-6.92,9.48-7.6,20.71-5.77,23.63,3.84,51.93,14.48,72.77,26.23,4.97,2.8,27.6,17.76,29.54,21.53.8,1.55-5.08,7.77-6.66,9.39-11.02,11.28-20.7,15.32-25.43,32.57-.54,1.96-.78,3.23-.24,5.28s6.48,12.73,9.34,8.82l37.13-37.96c2.19-.57,3.49,1.53,4.81,2.88,18.59,19.03,36.13,60.01,42.19,85.8,1.33,5.67,4.04,16.5,4.22,21.86.33,9.66-20.45,23.17-19.85,26.7l16.9,17.4c2.75,4.28,2.31,9.71,1.9,14.62-.67,8.15-7.21,25.46-6.85,31.07.16,2.5,3.2,6.05,3.74,9.3.68,4.08-.44,8.43.7,12.3.86,2.9,4.56,6.67,5.74,9.26,6.44,14.02,14.72,54.42,11.37,68.77-.7,2.99-3.32,5.23-4.11,7.89-4.7,15.94-4.43,24.37-14.47,39.53-3.33,5.02-22.38,29.19-26.62,31.38-4.54,2.34-9.13.24-13.63,1.37-3.37.85-10.31,6.83-14.54,8.46-14.26,5.48-29.67,4.37-44.25.84-7.07-1.71-12.38-4.63-18.41-8.53-9.15,11.35-20.91,20.61-34.19,26.85-42.59,19.98-87.77,7.84-119.06-25.76-2.33-.6-3.58,2.08-5.6,3.1-16.35,8.24-34.85,11.33-52.49,5.09-6.08-2.15-14.95-9.05-19.94-10.06-6.17-1.25-10.8,1.37-16.99-3.01-6.36-8.74-13.77-17.3-19.71-26.29-5.15-7.79-11.44-18.29-13.72-27.28-1.23-4.87-1.01-11.22-2.06-14.94-.49-1.73-4.13-4.64-5.01-6.99-3.22-8.57.97-18.09,2.08-26.36,2-14.85,2.92-33.68,11.12-46.68.7-1.12,2.26-.39,3.07-1.34,5.29-6.22,3.83-12.04,2.5-19.39-2.23-12.39-12.69-40.43-10.52-51.43.84-4.29,17.24-16.2,17.82-19.16.83-4.26-19.46-17.77-19.78-25.94-.29-7.57,4.69-26.84,6.98-34.87,6.19-21.66,19.24-49.26,32.54-67.46,2.03-2.78,7.07-10.87,10.7-9.94l43.16,42.9c.74.8,2.77,1.42,3.5.91.63-.44,6.62-12.97,6.8-13.74.98-4.31-1.6-8.99-4.35-12.13-8.91-10.15-22.95-19.85-31.37-30.63-1.57-2-4.32-4.7-2.11-7.03,22.17-16.85,48.23-31.12,75.08-38.93C156.81,5.11,177.92-.24,185.88,0c5.21.16,9.34,5.13,13.13,8.48ZM194.07,20.4c-1.01-1.03-5.88-6.01-6.26-6.24-4.78-3.01-17.73.07-23.41,1.38-20.83,4.83-45.14,14.42-63.32,25.68-1.78,1.1-10.69,6.68-10.57,8.15.08.96,11.07,12.49,12.85,14.19.89.85,2.23,2.78,3.53,2.48,5.68-15.66,15.88-28.85,34-29.07,3.89-.05,8.51,2.02,10.88,1.79,6.78-.66,15.64-7.27,24.16-6.79,7.85.44,8.32,6.13,12.54,7.59,3.71,1.28,10.12-7.73,12.86-10.16.11-.65-6.24-7.97-7.27-9.02ZM235.84,37.47c8.69-7.04,8.96-6.16,19.8-3.14,3.62,1.01,11.95,5.32,14.54,5.58,1.5.15,8.05-2.68,11.7-2.89,9.55-.55,19.23,2.43,26.55,8.52,2.74,2.28,10.75,13.21,11.62,13.38,2.32.46,9.02-6.31,9.23-8.54.18-1.93-7.06-6.53-8.94-7.75-16.92-10.98-51.7-26.3-71.52-28.47-9.25-1.01-11.98,1.89-19.12,6.67-11.51,7.71-22.47,18.01-32.27,27.73-1.24,3.01,7.27.49,8.45.44,4.08-.15,12.28,1.26,14.84.86,4.11-.64,11.53-9.48,15.12-12.4ZM182.41,51.05c.07-4.64-5.1-8.1-9.46-8.05-2.33.03-6.7,1.08-3.24,3.3,1.86,1.2,11.21,6.19,12.71,4.75ZM253.41,45.07c-.18-.24-5.03-1.96-5.6-2.02-2.53-.25-9.48,3.94-8.39,6.49,2.53,4.94,15.84-1.99,13.99-4.48ZM334.21,174.86c3.83-6.2-16.55-31.71-15.68-35.1.39-1.51,3.4-2.96,3.65-5.35.74-7.24-17.24-32.14-20.62-40.1-.73-3.66,6.87-11.02,8.18-16.44,4.86-20.15-12.97-33.29-31.56-30.56-10.34,1.52-26.25,14.7-31.23,14.77-10.83.15-25.39-4.08-37.03-4.09-6.5,0-16.02,1.48-22.9,2.17-3,.3-5.77,2.09-8.99,1.86-7.75-.57-21.18-14.14-35.14-14.95-18.28-1.06-31.13,18.42-24.26,35.28,1.67,4.09,7.72,9.12,6.64,12.98-4.34,7.53-22.13,32.76-20.87,40.18.42,2.45,3.32,3.07,3.06,5.97-.5,5.56-14.5,19.73-14.99,30.21-.13,2.7,1.39,4.55.55,7.39-1.4,4.74-13.75,15.11-16.04,22.03-1.65,4.99,1.89,8.15,1,9.92-4.4,5.24-19.1,20.12-18.67,26.52.18,2.67,2.99,4.06,1.66,6.48-5.09,8.05-30.84,29.23-30.63,37.55.06,2.4,2.28,3.57,1.97,5.74s-10.62,16.37-12.6,21.52c-3.9,10.15-8.16,37.4-9.16,48.83-.91,10.46,3.67,8.6,5.43,14.33,1.36,4.42.31,11.73,1.71,17.29,3.91,15.49,22.27,33.52,30.65,47.34,3.54,4.27,8.14-2.28,11.36-1.43,1.9.5,13.89,9.74,18.34,11.74,14.89,6.69,29.12,5.7,44.08-.67,7.25-3.09,11.08-8.49,16.66-13.13,5.34,5.55,8.32,11.52,14.11,16.95,36.57,34.29,94.87,31.36,128.04-6.01,1.61-1.81,7.21-10.68,8.12-10.95,3.89-1.17,6.53,6.53,8.34,8.47,4,4.28,22.35,8.02,28.49,8.51,13.58,1.08,22.93-3,33.86-10.21,3.56-2.35,3.73-5.56,9.09-4.81,2.55.36,4.53,2.88,7.35,1.73.64-.26,8.04-8.85,9.2-10.28,8.33-10.24,22.05-28.63,24.75-41.25.94-4.38.61-10.71,1.72-14.28.93-3,5.41-4.86,5.53-8.52-3.21-19.26-3.21-42.19-12.15-59.74-1.52-2.99-9.41-13.14-9.62-14.36-.41-2.37,4.78-4.99,2.28-10.3-9.31-9.71-18.13-19.89-27.14-29.9-.89-.98-4.91-3.99-5.12-4.34-.91-1.56,1.46-6.01.33-9.82-2.14-7.18-14.74-16.35-17.03-22.01-1.42-3.5,1.2-6.49.01-10.98-1.64-6.19-18.14-21.99-17.51-24.43.27-1.04,2.44-1.2,2.77-1.74ZM95.11,119.34l-38.16-36.28c-3.08.76-22.81,39.44-25.02,45.02-3.28,8.31-12.76,37.52-11.11,45.03,1.09,4.96,7.5,10.46,10.08,14.96,5.72,3.57,21.68,26.69,26.21,27.88,3.63.95,11.63-11.03,9.09-15.19-5.87-8.58-24.79-24.11-25.83-34.19-.69-6.67,6.47-25.75,9.26-32.78,1.97-4.95,6.03-15.15,8.91-19.09,2.62-3.59,8.8,3.22,11.51,5.71,5.03,4.63,13.52,15.3,18.8,18.7,1.23.79,1.98,1.23,3.54.96-.41-5.34,5.95-16.77,2.7-20.72ZM386.8,129.67c-.99-2.48-.33-4.42-1.14-6.27-2.41-5.51-19.91-38.56-23.88-39.24-5.16,1.22-7.16,6.45-10.32,9.43-3.44,3.25-24.08,21.09-24.05,23.94.01,1.18,2.01,3.56,2.53,5.5,1.22,4.56,1.16,7.01,1.48,11.54.1,1.49-.78,2.89,1.49,2.48l21.49-21.51,4.93-2.42c5.17,10.72,10.69,21.68,14.57,32.96,1.63,4.75,5.86,17.44,6.34,21.75.38,3.44-2.31,7.59-4.42,10.14-1.6,1.93-4.86,1.96-4.24,5.34.31,1.73,11.88,16.26,14.9,10.31l13.94-16.08c-1.71-16.14-6.34-31.61-12.11-46.67-.27-.7-1.41-.91-1.52-1.19ZM65.04,167.67c2.34-1.96,17.52-17.71,17.3-18.98-5.1-4.05-11.34-13.43-16.38-16.69-.93-.6-2.66-1.56-3.54-.95-1.56,1.09-11.41,33.33-11.01,36.42.14,1.06,2.22,4.63,3.01,5.07,3.93,2.19,7.6-2.34,10.62-4.88ZM354.1,132.17c-1.06.28-14.75,13.86-15.74,15.34-.68,1.01-1.2,1.45-.83,2.84.48,1.84,21.52,20.97,23.66,21.5,2.01.5,6.48-.1,7.12-2.45.75-2.74-9.95-35.7-11.85-36.9-.85-.54-1.39-.58-2.35-.33ZM84.41,165.06c-1.75-.35-2.47.9-3.51,1.98-5.53,5.74-12.22,13.62-10.48,22.02,1.39.07,1.91.29,3.04-.68,2.96-2.55,12.92-21.21,10.95-23.32ZM361.77,190.7c-4.64-4.75-9.05-10.02-13.83-14.67-1.29-1.26-2.47-3.23-4.52-2.97,2.35,8.76,12.83,14.94,15.42,24.07,1.26,4.43-.38,9.19,1.11,12.89,2.28,5.67,12.43,11.14,14.89,18.11,2.22,6.26-.22,6.44,4.39,12.57,3.03,4.03,6.76,9.34,10.15,12.89.95,1,4.8,5.4,6.02,4.47,1.43-7.93,6.1-20.13,3.47-27.95-.68-2.01-12.41-14.31-14.94-17.06-7.07-7.67-14.95-14.95-22.16-22.34ZM42.83,217.63c-1.69-1.79-3.74-6.25-6.72-5.47-1.23.32-13.73,13.16-14.25,14.84-1.19,3.83,4.15,34.89,5.56,36.06.26.22,2.42.12,3.02-.48,2.03-4.79,10.54-9.6,11.75-14.28,1.65-6.39-4.66-8.18.79-16.18s8.95-4.87-.15-14.49Z"/>
      <path class="cls-2" d="M334.21,174.86c-.33.53-2.5.7-2.77,1.74-.63,2.43,15.87,18.24,17.51,24.43,1.19,4.48-1.43,7.47-.01,10.98,2.29,5.65,14.89,14.83,17.03,22.01,1.14,3.81-1.23,8.26-.33,9.82.21.36,4.23,3.36,5.12,4.34,9.01,10.01,17.82,20.19,27.14,29.9,2.5,5.31-2.69,7.93-2.28,10.3.21,1.22,8.1,11.37,9.62,14.36,8.94,17.55,8.94,40.47,12.15,59.74-.12,3.67-4.6,5.52-5.53,8.52-1.11,3.57-.78,9.9-1.72,14.28-2.71,12.62-16.42,31.01-24.75,41.25-1.16,1.42-8.56,10.02-9.2,10.28-2.82,1.15-4.8-1.37-7.35-1.73-5.36-.75-5.53,2.46-9.09,4.81-10.94,7.21-20.28,11.28-33.86,10.21-6.14-.49-24.49-4.23-28.49-8.51-1.81-1.93-4.45-9.64-8.34-8.47-.91.27-6.51,9.14-8.12,10.95-33.16,37.38-91.47,40.31-128.04,6.01-5.79-5.43-8.77-11.4-14.11-16.95-5.58,4.64-9.41,10.04-16.66,13.13-14.96,6.37-29.2,7.37-44.08.67-4.45-2-16.44-11.24-18.34-11.74-3.22-.84-7.82,5.7-11.36,1.43-8.38-13.83-26.74-31.85-30.65-47.34-1.4-5.55-.35-12.86-1.71-17.29-1.76-5.73-6.34-3.87-5.43-14.33,1-11.43,5.25-38.69,9.16-48.83,1.98-5.14,12.28-19.28,12.6-21.52s-1.91-3.34-1.97-5.74c-.21-8.32,25.54-29.5,30.63-37.55,1.33-2.41-1.48-3.8-1.66-6.48-.42-6.4,14.28-21.28,18.67-26.52.89-1.77-2.65-4.93-1-9.92,2.29-6.92,14.64-17.29,16.04-22.03.84-2.84-.68-4.68-.55-7.39.49-10.48,14.49-24.65,14.99-30.21.26-2.9-2.64-3.52-3.06-5.97-1.26-7.42,16.53-32.65,20.87-40.18,1.08-3.87-4.97-8.89-6.64-12.98-6.86-16.86,5.98-36.34,24.26-35.28,13.96.81,27.39,14.38,35.14,14.95,3.22.24,5.98-1.56,8.99-1.86,6.88-.69,16.39-2.17,22.9-2.17,11.64.01,26.2,4.24,37.03,4.09,4.99-.07,20.89-13.25,31.23-14.77,18.59-2.73,36.42,10.4,31.56,30.56-1.31,5.42-8.91,12.79-8.18,16.44,3.38,7.96,21.36,32.86,20.62,40.1-.25,2.39-3.26,3.84-3.65,5.35-.87,3.39,19.52,28.9,15.68,35.1ZM181.13,116.27c-7.99,1.84-4.62,11.76,5.76,9.76,7.37-1.42,5.33-12.31-5.76-9.76ZM239.69,118.31c-5.88,6.37,7.98,12.18,11.25,5.76s-6.83-10.55-11.25-5.76ZM212.14,124.25c-1.94.59-21.08,20.04-21.52,21.5-1.43,4.82,1.09,12.51-1.21,17.79,1.43,4.75-.2,9.8,1.47,14.54,3.52,10.05,30.44,8.96,38.59,6.51,4.93-1.48,7.84-4.11,8.7-9.3.72-4.34.97-24.71,0-28.52-.36-1.39-2.26-3.52-3.25-4.75-2.3-2.88-15.87-17.26-18.23-17.79-1.53-.35-3.03-.46-4.56,0ZM299.42,361.05c-4.76-26.41-26.27-47.44-49.65-58.85-2.84-1.39-10.79-2.95-11.87-5.13.08-6.63-2.1-40.42.42-43.61.98-1.25,4.44-1.87,6.62-4.37,4.6-5.28,1.41-10.31-5-11.05-12.09-1.4-39.64-1.07-52.06-.02-9.16.78-9.3,7.47-2.96,13.04,1.32,1.16,3.8,1.69,4.52,2.48,1.61,1.78,1.21,21.02,1.03,25.06-.27,5.86-1.27,12.83-2.04,18.71-15.13,6.75-30.57,14.9-41.51,27.73-8.63,10.11-12.99,22.8-17.99,34.99-4.92-3.83-1.66-10.75-1.5-15.98-5.97-2.41-7.17,5.91-7.09,10.52.11,6.36,12.37,12.61,17.06,18.01,5.73,6.59,17.34,25.96,13.51,34.45-.82,1.81-4.88,3.79-5.32,5.72-.1.43.72,7.9.91,8.74,4.45,19.23,38.9,38.88,57.39,40.61,29.12,2.72,72.62-17.03,79.32-47.79,1.07-4.94-1.26-2.26-3.83-4.69-4.28-4.05-2.14-11.59-.42-16.54,2.15-6.21,8.88-15.72,13.45-20.55,8.03-8.5,25.16-13.92,17.45-28.39-1.4-2.63-5.65-3.88-7.32-1.99s7.99,18.44-3.09,18.9ZM304.41,408.06c-1.28-1.24-14.25,1.45-12.99,6.48.37,1.48,1.75,1.37,3.02,1.07,1.82-.43,12.8-4.79,9.97-7.55ZM123.42,409.06c-.46,2.13,1.09,2.27,2.32,3.17,1.69,1.23,10.5,6.94,11.61,3.25,1.89-6.28-10.17-7.08-13.94-6.42ZM122.08,420.21c-6.89,2.15,9.99,8.75,11.33,4.3,1.49-4.97-8.25-5.26-11.33-4.3ZM306.42,420.06c-.54-.56-14.27-1.39-11.01,4.99,2.27.93,14.19-1.68,11.01-4.99Z"/>
      <path class="cls-4" d="M299.42,361.05c11.09-.46,1.35-16.93,3.09-18.9s5.92-.64,7.32,1.99c7.71,14.47-9.41,19.89-17.45,28.39-4.57,4.83-11.3,14.33-13.45,20.55-1.72,4.95-3.86,12.49.42,16.54,2.57,2.43,4.9-.24,3.83,4.69-6.7,30.76-50.19,50.51-79.32,47.79-18.5-1.73-52.94-21.37-57.39-40.61-.19-.84-1.01-8.31-.91-8.74.44-1.93,4.51-3.91,5.32-5.72,3.83-8.49-7.78-27.86-13.51-34.45-4.69-5.4-16.96-11.65-17.06-18.01-.08-4.6,1.12-12.93,7.09-10.52-.16,5.22-3.42,12.15,1.5,15.98,4.99-12.19,9.36-24.88,17.99-34.99,10.95-12.84,26.39-20.98,41.51-27.73.77-5.88,1.77-12.85,2.04-18.71.19-4.04.58-23.27-1.03-25.06-.71-.79-3.2-1.32-4.52-2.48-6.34-5.58-6.2-12.27,2.96-13.04,12.42-1.06,39.97-1.38,52.06.02,6.41.74,9.6,5.77,5,11.05-2.18,2.5-5.64,3.13-6.62,4.37-2.51,3.19-.34,36.98-.42,43.61,1.08,2.18,9.03,3.74,11.87,5.13,23.38,11.42,44.89,32.44,49.65,58.85ZM190.42,244.05c-.85.26-2.32-.71-1.99.98,14.53,7.65,37.38,7.02,51.98,0l-9.5-2.97c-5.33,1.03-36.37-1.39-38.49,0-2.13-.24-2.24-.13-2,2ZM212.42,327.05c-2.86-1.83-5.58-2.37-9-1.99.5,6.19.76,10.16,6.99,12.5,4.19,1.57,6.91-.85,6,6.49-7.8-7.86-9.93,3.27-5.99,10,1.71,2.93.84.91,2,2,.14.13-.06,1.41,0,2,.26,2.82-.06,6.69-2.99,8,1.33-2.97-1.67-10.17-4.95-7.94-.41.28-2.96,8.34-2.98,9.55-.05,2.78,2.32,5.68,1.78,7.69-.45,1.67-3.83,2.84-2.85,5.69,2.39.12,3.35-2.27,5.7-2.79,2.82-.62,6.02.35,8.59-.41,5.82-1.71,9.45-12.85-1.28-9.29l2.98-9.51c11.5.66,17.98-16.23,3.01-11,.49-2.34-.78-9.43.15-10.85.31-.47,2.38-.54,3.23-1.27,2.87-2.48,3.31-3.67,4.62-6.88.24-.58.76-.96,1-2,.13-.56-.07-1.35,0-2,.02-.21,2.38-2.2-1-3-5.79-1.36-6.97,2.96-9,7-3.58-2.06-1.59-7.78-2.09-11.41-1.56-11.41-14.61-18.21-11.86-2.14.98,5.72,6.17,6.81,7.94,11.55ZM271.67,352.31c-2.39,2.39-.08,8.26,3.76,6.27,4.78-2.48.22-10.25-3.76-6.27ZM174.28,360.92c2.9-1.81-1.06-8.18-4.92-5.43-3.55,2.53,1.23,7.73,4.92,5.43ZM269.13,381.76c1.01-.84,2.79-4.98,3.05-6.43,3.34-18.62-21.04-25.48-32.31-14.31-11.51,11.42,3.15,12.97,3.58,14.71,1.64,6.57-5.81,9.69-6.1,12.88-.67,7.5,16.18,12.22,18.61,4.51.98-3.1-.47-9.84,2.42-11.64,1.79-1.11,6.34,3.93,10.74.28ZM165.03,362.13c-2.76.9-2.8,8.32,2.68,6.76,5-1.42,2.06-8.31-2.68-6.76ZM181.15,381.8c1.2-1.28,1.46-4.5,1.32-6.23-.79-10.52-16.36-9.28-15.13,3.02.65,6.55,10.4,6.85,13.81,3.22ZM196.26,384.21c-1.35-2.19-7-1.18-6.62,3.18.6,6.9,10.3,2.76,6.62-3.18ZM182.41,427.06c.76,4.13,2.22,15.78,6.02,17.48,6.74,3.01,25.72-4.33,26.09-11.99.21-4.3-6.11-10.54-4.96-14.77,1.38-5.12,17.44-8.22,5.35-17.72-15.05-11.82-43.11-1.84-47.05,16.93-2.74,13.06,5.09,10.39,14.55,10.07ZM219.03,414.13c-2.94.96-2.51,8.56,2.73,6.81,4.22-1.41,2.37-8.47-2.73-6.81ZM252.13,419.19c-3.82,1.06-3.46,6.22.84,6.87,7.29,1.11,4.93-8.48-.84-6.87Z"/>
      <path class="cls-4" d="M212.14,124.25c1.53-.46,3.03-.34,4.56,0,2.36.53,15.93,14.91,18.23,17.79.99,1.24,2.89,3.36,3.25,4.75.97,3.81.73,24.18,0,28.52-.87,5.19-3.77,7.81-8.7,9.3-8.15,2.45-35.07,3.54-38.59-6.51-1.66-4.74-.04-9.79-1.47-14.54,2.3-5.28-.22-12.97,1.21-17.79.43-1.46,19.58-20.92,21.52-21.5ZM203.13,139.27c-11.5,2.56-1.35,25.42,11.97,25.5,3.95.02,13.32-8.14,14.77-11.75,1.06-2.65,1.19-11.91-1.45-13.47-1.46-.86-22.67-.86-25.29-.27Z"/>
      <path class="cls-4" d="M181.13,116.27c11.1-2.56,13.13,8.34,5.76,9.76-10.38,2-13.76-7.92-5.76-9.76Z"/>
      <path class="cls-4" d="M239.69,118.31c4.41-4.79,14.65-.91,11.25,5.76s-17.12.62-11.25-5.76Z"/>
      <path class="cls-4" d="M123.42,409.06c3.77-.67,15.82.14,13.94,6.42-1.11,3.7-9.92-2.02-11.61-3.25-1.23-.9-2.78-1.04-2.32-3.17Z"/>
      <path class="cls-4" d="M304.41,408.06c2.83,2.75-8.15,7.11-9.97,7.55-1.28.3-2.65.41-3.02-1.07-1.26-5.03,11.71-7.72,12.99-6.48Z"/>
      <path class="cls-4" d="M122.08,420.21c3.08-.96,12.82-.67,11.33,4.3-1.34,4.45-18.22-2.15-11.33-4.3Z"/>
      <path class="cls-4" d="M306.42,420.06c3.18,3.31-8.74,5.92-11.01,4.99-3.26-6.38,10.47-5.55,11.01-4.99Z"/>
      <path class="cls-2" d="M182.41,427.06c-9.45.32-17.29,3-14.55-10.07,3.94-18.78,32-28.76,47.05-16.93,12.09,9.5-3.97,12.6-5.35,17.72-1.14,4.23,5.18,10.47,4.96,14.77-.37,7.66-19.35,15-26.09,11.99-3.81-1.7-5.26-13.35-6.02-17.48ZM205.34,414.14c-1.48-1.27-19.39,4.47-20.52,5.86s1.46,6.83.6,9.06c1.62,1.67,17.22-7.6,21-6.01l-1.08-8.91Z"/>
      <path class="cls-2" d="M269.13,381.76c-4.4,3.65-8.95-1.39-10.74-.28-2.89,1.8-1.44,8.54-2.42,11.64-2.44,7.7-19.28,2.99-18.61-4.51.28-3.19,7.74-6.31,6.1-12.88-.43-1.74-15.1-3.29-3.58-14.71,11.27-11.17,35.65-4.31,32.31,14.31-.26,1.45-2.03,5.59-3.05,6.43ZM252.29,393.92c1.14-.72,3.72-19.99-3.28-16.79l-6.67,12.4c.29,3.06,7.15,5.25,9.95,4.4Z"/>
      <path class="cls-2" d="M227.42,322.05l1,3c-.07.65.13,1.44,0,2-1.7-.1-2.34-.36-1.99,1.49l.99.51c-1.31,3.21-1.75,4.4-4.62,6.88-.85.73-2.92.8-3.23,1.27-.92,1.41.34,8.51-.15,10.85,14.97-5.23,8.5,11.66-3.01,11-.83-.05-2.62-1.43-4-1-.06-.59.14-1.87,0-2,.24-2.12.13-2.24-2-2-3.94-6.73-1.81-17.86,5.99-10,.92-7.35-1.81-4.92-6-6.49-6.24-2.35-6.49-6.31-6.99-12.5,3.42-.37,6.14.16,9,1.99,1.49.95,3.29,3.96,3.55,4.03,3.32.98,2.08-1.29,2.45-2.03,2.03-4.04,3.21-8.36,9-7Z"/>
      <path class="cls-2" d="M192.42,242.05c2.12-1.38,33.16,1.03,38.49,0l9.5,2.97c-14.6,7.02-37.44,7.64-51.98,0-.34-1.69,1.13-.72,1.99-.98,3.34-1.03,1.56-1.71,2-2Z"/>
      <path class="cls-1" d="M216.42,359.05l-2.98,9.51c10.73-3.57,7.1,7.58,1.28,9.29-2.58.75-5.77-.21-8.59.41-2.35.52-3.31,2.91-5.7,2.79-.98-2.85,2.41-4.02,2.85-5.69.54-2.02-1.83-4.91-1.78-7.69.02-1.22,2.57-9.27,2.98-9.55,3.28-2.23,6.28,4.97,4.95,7.94,2.93-1.31,3.25-5.18,2.99-8,1.38-.43,3.17.95,4,1Z"/>
      <path class="cls-2" d="M181.15,381.8c-3.41,3.64-13.16,3.33-13.81-3.22-1.23-12.3,14.35-13.54,15.13-3.02.13,1.74-.13,4.95-1.32,6.23Z"/>
      <path class="cls-1" d="M218.42,329.05c-.37.74.87,3.01-2.45,2.03-.26-.08-2.06-3.08-3.55-4.03-1.77-4.74-6.96-5.83-7.94-11.55-2.75-16.07,10.3-9.27,11.86,2.14.5,3.63-1.5,9.35,2.09,11.41Z"/>
      <path class="cls-1" d="M252.13,419.19c5.77-1.6,8.13,7.98.84,6.87-4.3-.65-4.66-5.81-.84-6.87Z"/>
      <path class="cls-1" d="M196.26,384.21c3.68,5.95-6.02,10.09-6.62,3.18-.38-4.37,5.26-5.37,6.62-3.18Z"/>
      <path class="cls-1" d="M271.67,352.31c3.98-3.98,8.54,3.79,3.76,6.27-3.83,1.99-6.14-3.88-3.76-6.27Z"/>
      <path class="cls-1" d="M165.03,362.13c4.75-1.54,7.68,5.34,2.68,6.76-5.48,1.55-5.45-5.87-2.68-6.76Z"/>
      <path class="cls-1" d="M219.03,414.13c5.1-1.66,6.95,5.4,2.73,6.81-5.24,1.75-5.68-5.85-2.73-6.81Z"/>
      <path class="cls-1" d="M174.28,360.92c-3.69,2.31-8.47-2.89-4.92-5.43,3.86-2.75,7.82,3.61,4.92,5.43Z"/>
      <path class="cls-1" d="M228.42,325.05l-1-3c3.38.8,1.02,2.79,1,3Z"/>
      <path class="cls-1" d="M228.42,327.05c-.24,1.04-.76,1.42-1,2l-.99-.51c-.35-1.85.29-1.59,1.99-1.49Z"/>
      <path class="cls-1" d="M210.42,354.05c2.13-.24,2.24-.12,2,2-1.16-1.09-.29.93-2-2Z"/>
      <path class="cls-1" d="M192.42,242.05c-.44.29,1.34.97-2,2-.24-2.13-.13-2.24,2-2Z"/>
      <path class="cls-2" d="M203.13,139.27c2.63-.59,23.83-.59,25.29.27,2.64,1.56,2.51,10.82,1.45,13.47-1.45,3.62-10.81,11.78-14.77,11.75-13.32-.07-23.47-22.93-11.97-25.5Z"/>
      <path class="cls-4" d="M205.34,414.14l1.08,8.91c-3.78-1.59-19.38,7.68-21,6.01.86-2.23-1.69-7.71-.6-9.06s19.03-7.13,20.52-5.86Z"/>
      <path class="cls-4" d="M252.29,393.92c-2.79.85-9.66-1.33-9.95-4.4l6.67-12.4c7-3.19,4.42,16.08,3.28,16.79Z"/>
    </g>
  </g>
</svg>